<?xml version="1.0" standalone="no"?>
<!DOCTYPE svg PUBLIC "-//W3C//DTD SVG 20010904//EN"
 "http://www.w3.org/TR/2001/REC-SVG-20010904/DTD/svg10.dtd">
<svg version="1.0" xmlns="http://www.w3.org/2000/svg"
 width="352.000000pt" height="352.000000pt" viewBox="0 0 352.000000 352.000000"
 preserveAspectRatio="xMidYMid meet">
<metadata>
Created by potrace 1.11, written by Peter Selinger 2001-2013
</metadata>
<g transform="translate(0.000000,352.000000) scale(0.100000,-0.100000)"
fill="#000000" stroke="none">
<path d="M0 1760 l0 -1060 1760 0 1760 0 0 1060 0 1060 -1760 0 -1760 0 0
-1060z m991 689 c38 -17 55 -32 72 -63 20 -37 22 -56 22 -176 -1 -115 -4 -142
-22 -181 -19 -42 -27 -49 -77 -68 -45 -17 -79 -21 -169 -21 -75 0 -117 4 -125
12 -9 9 -12 79 -12 255 0 220 2 243 18 252 9 6 68 11 130 11 94 0 122 -4 163
-21z m860 11 c22 -12 25 -42 6 -58 -7 -6 -53 -12 -103 -14 l-89 -3 0 -60 0
-60 78 -5 c79 -5 96 -14 97 -50 0 -29 -23 -40 -86 -40 -91 0 -94 -2 -94 -71 0
-71 11 -80 95 -72 75 6 115 -8 115 -40 0 -42 -16 -47 -155 -47 -71 0 -137 5
-145 10 -12 8 -16 48 -18 241 -4 298 -15 279 154 279 69 0 134 -5 145 -10z
m981 -27 c10 -9 18 -24 18 -33 0 -15 -63 -144 -97 -199 -8 -12 -28 -48 -45
-80 -67 -124 -89 -148 -121 -135 -18 7 -55 65 -145 229 -99 182 -98 179 -79
209 21 31 29 32 262 28 157 -2 192 -6 207 -19z m-185 -802 c54 -1 65 -4 92
-32 25 -24 31 -39 31 -73 0 -49 -13 -66 -51 -66 -32 0 -46 15 -51 55 -2 25 -9
31 -41 38 -21 5 -53 6 -72 3 -58 -11 -65 -32 -65 -193 0 -130 2 -145 20 -163
20 -20 37 -24 100 -20 58 3 72 16 68 63 -3 38 -7 44 -40 60 -29 13 -38 23 -38
42 0 31 26 45 87 45 79 0 87 -12 91 -128 4 -92 2 -101 -20 -124 -28 -31 -93
-48 -180 -48 -78 0 -158 35 -177 78 -18 38 -26 243 -13 326 9 56 17 76 41 100
29 28 84 45 136 40 11 -1 48 -2 82 -3z m-1860 -16 c13 -9 36 -58 63 -132 56
-158 58 -163 70 -163 12 0 14 5 70 163 43 120 63 147 107 147 13 0 32 -9 43
-20 17 -17 20 -34 20 -117 1 -54 5 -156 10 -228 7 -113 6 -132 -7 -147 -9 -10
-26 -18 -38 -18 -41 0 -54 29 -61 140 -7 102 -7 103 -25 81 -10 -13 -28 -53
-39 -89 -36 -120 -74 -158 -114 -114 -9 11 -31 61 -49 112 -18 52 -38 95 -44
97 -18 6 -34 -58 -28 -117 7 -67 -9 -104 -46 -108 -47 -6 -59 19 -54 111 3 45
8 150 12 233 6 104 12 156 22 168 17 20 60 21 88 1z m1052 -32 c11 -10 44 -61
74 -113 l53 -95 72 -5 c78 -5 95 -15 90 -51 -3 -21 -9 -24 -48 -27 -25 -2 -49
-7 -54 -12 -5 -5 2 -28 18 -54 32 -55 33 -80 1 -111 l-24 -25 -226 0 -226 0
-24 25 c-32 31 -31 56 1 110 14 25 23 49 19 55 -3 5 -23 10 -44 10 -40 0 -61
14 -61 41 0 26 18 33 95 39 l70 5 57 100 c31 54 64 105 74 112 25 18 58 16 83
-4z"/>
<path d="M802 2372 c-9 -7 -13 -50 -13 -171 -1 -89 2 -165 6 -169 8 -8 95 -7
130 2 42 11 55 53 55 178 -1 81 -5 118 -15 131 -22 29 -132 48 -163 29z"/>
<path d="M2412 2408 c-17 -17 -15 -52 6 -79 11 -13 49 -82 87 -152 37 -71 74
-131 83 -134 17 -7 42 6 53 28 75 140 135 247 144 259 23 28 26 57 10 74 -14
13 -44 16 -194 16 -124 0 -181 -4 -189 -12z"/>
<path d="M1756 1446 c-40 -69 -37 -76 39 -76 57 0 65 2 65 19 0 25 -50 101
-66 101 -7 0 -24 -20 -38 -44z"/>
<path d="M1651 1248 c-57 -77 -56 -78 144 -78 200 0 201 1 145 78 l-30 42
-114 0 -114 0 -31 -42z"/>
</g>
</svg>
