<?xml version="1.0" standalone="no"?>
<!DOCTYPE svg PUBLIC "-//W3C//DTD SVG 20010904//EN"
 "http://www.w3.org/TR/2001/REC-SVG-20010904/DTD/svg10.dtd">
<svg version="1.0" xmlns="http://www.w3.org/2000/svg"
 width="192.000000pt" height="192.000000pt" viewBox="0 0 192.000000 192.000000"
 preserveAspectRatio="xMidYMid meet">
<metadata>
Created by potrace 1.11, written by Peter Selinger 2001-2013
</metadata>
<g transform="translate(0.000000,192.000000) scale(0.100000,-0.100000)"
fill="#000000" stroke="none">
<path d="M933 1844 c-3 -8 -11 -14 -17 -14 -7 0 -28 -13 -46 -30 -38 -34 -48
-38 -30 -12 7 9 0 4 -16 -13 -16 -16 -36 -30 -44 -30 -8 0 -14 -6 -13 -12 2
-7 -6 -13 -17 -13 -11 0 -20 -4 -20 -10 0 -5 -7 -10 -16 -10 -9 0 -12 -5 -8
-12 4 -7 4 -10 -1 -6 -4 4 -15 2 -23 -5 -13 -10 -14 -9 -7 2 5 10 4 12 -3 7
-7 -4 -12 -14 -12 -22 0 -8 -4 -12 -10 -9 -5 3 -10 1 -10 -5 0 -6 -4 -8 -10
-5 -5 3 -10 1 -10 -4 0 -6 -6 -11 -14 -11 -8 0 -17 -7 -20 -16 -3 -8 -10 -13
-15 -9 -6 3 -14 -3 -20 -12 -6 -10 -11 -14 -11 -10 0 5 -7 1 -16 -7 -8 -9 -20
-13 -26 -10 -6 4 -8 2 -5 -3 4 -6 -3 -13 -14 -16 -13 -4 -18 -10 -13 -18 4 -7
3 -10 -4 -5 -11 7 -76 -27 -67 -35 2 -3 -11 -11 -30 -18 -20 -7 -33 -17 -30
-22 4 -5 1 -9 -6 -9 -7 0 -42 -19 -78 -42 -36 -24 -68 -43 -72 -43 -4 0 -11
-4 -16 -9 -5 -5 -2 -6 6 -1 9 5 12 4 7 -3 -4 -7 -14 -12 -22 -12 -33 0 -54
-38 -54 -100 0 -36 4 -60 11 -60 5 0 7 -6 3 -12 -4 -7 2 -5 13 5 11 9 23 14
28 10 4 -5 5 -3 1 4 -4 7 9 18 33 29 22 10 38 21 36 25 -3 4 8 11 23 17 16 5
36 17 45 27 9 9 17 14 17 10 0 -4 7 1 16 9 8 9 20 14 25 11 5 -4 9 1 9 10 0 9
4 14 9 10 5 -3 16 3 23 13 7 11 21 18 30 16 10 -1 21 3 25 8 4 7 1 8 -8 3 -30
-17 7 13 42 33 20 12 40 18 44 14 5 -4 6 -2 3 3 -3 6 6 19 20 29 16 12 23 14
18 5 -4 -8 1 -4 12 8 11 12 22 19 26 16 3 -4 6 -2 6 4 0 6 13 16 30 23 16 7
27 16 25 21 -3 4 4 6 15 4 11 -2 18 0 15 4 -2 5 3 15 12 22 14 12 16 12 9 -1
-4 -8 0 -6 8 4 9 11 16 16 16 10 0 -5 4 -4 8 2 4 6 27 23 52 37 25 14 54 35
65 45 11 10 26 17 33 14 7 -2 11 2 10 10 -2 7 3 12 10 11 6 -2 12 1 12 5 0 15
34 10 54 -7 16 -13 18 -13 12 -1 -4 8 0 6 8 -4 9 -11 16 -17 16 -13 0 5 6 2
14 -5 8 -7 12 -15 11 -18 -2 -3 5 -7 17 -7 11 -1 33 -15 49 -32 15 -17 31 -26
34 -20 4 5 16 -2 27 -16 11 -15 27 -24 34 -21 8 3 14 -1 14 -9 0 -7 5 -17 12
-21 7 -5 9 -2 4 7 -4 8 -1 6 8 -5 8 -10 19 -16 24 -13 4 3 15 -3 22 -14 8 -10
19 -19 24 -19 5 0 15 -8 23 -17 9 -11 12 -12 7 -3 -4 8 3 5 15 -8 12 -12 26
-20 32 -17 5 4 9 1 9 -4 0 -6 7 -11 16 -11 8 0 12 -4 9 -10 -3 -5 0 -7 7 -5 9
4 14 24 15 60 0 38 -3 53 -11 48 -7 -5 -7 -2 1 8 13 16 12 36 -1 58 -6 9 -5
12 2 7 7 -4 9 7 8 31 -2 21 2 44 7 51 7 9 5 11 -9 6 -18 -7 -18 -7 -1 13 12
14 15 23 7 28 -15 9 -1 27 17 21 8 -3 11 -1 8 4 -8 13 1 13 27 -1 15 -8 19 -8
14 0 -5 7 1 10 16 8 13 -2 23 -9 23 -15 0 -6 3 -13 7 -17 4 -4 3 -17 -2 -29
-4 -13 -5 -29 0 -36 4 -7 4 -25 0 -41 -5 -15 -6 -30 -3 -33 10 -9 8 -76 -2
-80 -7 -3 -7 -7 0 -13 10 -8 15 -93 5 -93 -7 0 -4 -38 5 -67 4 -12 18 -24 31
-27 14 -4 22 -11 19 -17 -4 -5 -3 -9 2 -8 20 3 34 -2 28 -11 -3 -6 1 -7 9 -4
9 3 16 1 16 -5 0 -6 7 -11 15 -11 7 0 18 -8 24 -17 5 -10 13 -17 18 -16 4 0 7
-4 5 -9 -2 -6 4 -8 13 -5 8 4 15 2 15 -3 0 -6 7 -10 15 -10 8 0 15 -5 15 -11
0 -5 5 -7 11 -4 6 4 8 9 5 12 -3 3 -1 14 5 24 5 11 6 19 1 19 -4 0 -8 9 -8 20
0 11 3 20 7 20 12 0 -3 44 -18 53 -7 5 -11 13 -7 18 3 5 2 9 -3 8 -21 -4 -34
2 -27 13 4 7 3 8 -5 4 -6 -4 -23 2 -37 13 -15 12 -23 21 -19 21 4 0 2 7 -5 15
-7 8 -9 15 -4 15 5 0 9 18 9 39 0 22 -3 37 -7 35 -8 -5 -4 23 4 31 3 3 2 22
-2 41 -4 19 -4 34 1 34 5 0 9 5 9 11 0 5 -3 8 -7 6 -5 -3 -8 6 -8 19 0 13 5
24 10 24 6 0 3 5 -5 10 -8 5 -10 10 -5 10 11 0 12 91 1 109 -4 6 -2 11 5 11 8
0 8 4 -1 15 -7 8 -8 15 -3 15 5 0 10 7 10 14 0 8 -3 15 -6 14 -3 0 -8 1 -11 2
-15 8 -351 6 -356 -2 -12 -19 -13 -78 -2 -78 7 0 7 -5 -1 -14 -9 -10 -9 -16
-1 -21 8 -5 7 -11 -1 -22 -10 -11 -10 -16 0 -23 10 -5 10 -9 2 -15 -9 -5 -9
-10 -1 -20 8 -9 6 -14 -5 -19 -11 -4 -14 -2 -9 7 6 8 3 8 -8 -1 -14 -11 -18
-10 -28 8 -6 11 -15 18 -21 15 -5 -4 -9 -1 -9 5 0 6 -4 9 -9 6 -5 -3 -12 1
-15 10 -4 9 -9 14 -12 11 -4 -3 -11 -1 -18 4 -60 51 -66 54 -89 50 -5 -1 -6 3
-2 9 3 5 0 10 -8 10 -8 0 -17 7 -21 15 -3 8 -14 15 -25 15 -11 0 -23 5 -27 12
-5 7 -3 8 6 3 9 -5 11 -4 6 4 -4 6 -11 9 -16 6 -5 -3 -11 -1 -15 5 -4 6 -11 8
-16 4 -5 -3 -8 0 -7 6 4 18 -32 21 -39 4z"/>
<path d="M1084 1477 c3 -11 0 -20 -9 -23 -8 -4 -15 -10 -15 -16 0 -5 3 -7 8
-5 4 3 7 -12 7 -34 0 -21 -4 -39 -8 -39 -5 0 -5 -5 -2 -10 4 -6 11 -7 17 -4 6
4 4 -3 -5 -16 -12 -18 -14 -27 -5 -37 8 -9 7 -13 -1 -13 -7 0 -9 -5 -6 -10 4
-6 11 -7 17 -4 5 4 3 -5 -7 -19 -9 -14 -12 -27 -8 -30 12 -8 9 -49 -6 -72 -12
-19 -12 -19 -6 -1 6 19 5 19 -14 2 -13 -12 -21 -14 -26 -6 -5 8 -11 8 -19 1
-7 -6 -16 -8 -20 -4 -12 12 -36 12 -36 0 0 -7 -5 -5 -10 3 -9 13 -10 13 -10 0
0 -13 -2 -13 -9 -1 -8 12 -12 12 -25 2 -13 -11 -16 -11 -16 0 0 11 -2 11 -10
-1 -8 -12 -10 -11 -10 7 0 12 -5 23 -11 25 -9 3 -9 10 1 27 8 15 8 21 1 17
-13 -8 -10 21 3 43 7 11 5 13 -9 7 -18 -6 -18 -6 1 15 10 12 13 19 6 15 -14
-8 -12 19 2 43 7 11 5 13 -9 7 -18 -6 -18 -6 1 15 10 12 14 19 7 16 -13 -8
-13 39 0 61 8 12 2 16 -17 13 -5 -1 -6 5 -2 14 4 12 2 14 -13 6 -10 -6 -22 -7
-26 -3 -5 4 -5 2 -1 -5 3 -7 -2 -14 -14 -18 -11 -3 -20 -11 -20 -16 0 -5 -7
-9 -15 -9 -8 0 -15 -5 -15 -11 0 -5 -4 -7 -10 -4 -5 3 -10 1 -10 -4 0 -6 5
-11 11 -11 5 0 7 -5 3 -12 -11 -17 -10 -118 1 -118 6 0 3 -5 -5 -11 -11 -8
-12 -12 -2 -16 6 -2 9 -10 6 -15 -11 -18 -10 -128 1 -128 7 0 7 -3 0 -8 -16
-12 -12 -46 8 -67 17 -18 18 -18 11 -1 -6 16 -4 17 13 8 11 -6 25 -7 33 -2 10
6 21 3 34 -8 11 -9 16 -12 13 -5 -4 6 -3 14 3 18 5 3 10 1 10 -5 0 -8 6 -7 21
1 15 8 19 8 15 0 -9 -14 0 -14 25 -1 13 8 19 7 19 0 0 -7 6 -8 19 -1 10 6 22
7 26 3 10 -10 29 -9 37 3 5 6 8 5 8 -4 0 -11 3 -11 17 0 14 12 16 12 8 0 -6
-11 -4 -13 11 -7 28 12 65 16 59 6 -3 -4 2 -11 11 -14 8 -3 12 -2 9 3 -3 5 -1
12 5 16 5 3 10 2 10 -3 0 -7 12 -6 33 0 22 7 33 16 33 29 0 10 -4 19 -9 19 -4
0 -5 5 -1 12 10 16 11 69 1 75 -4 2 -3 12 2 22 6 10 6 23 1 31 -5 8 -6 18 -3
24 6 9 7 66 3 84 -1 4 -1 12 0 17 7 32 6 55 -2 55 -5 0 -8 7 -6 16 2 10 -4 19
-12 21 -13 4 -13 3 0 -6 9 -6 10 -11 3 -11 -6 0 -21 12 -33 28 -12 15 -18 21
-15 14 11 -21 -31 3 -45 26 -11 16 -11 16 -6 -1z"/>
<path d="M559 1323 c-1 -4 -1 -11 0 -15 1 -8 -15 -12 -32 -9 -5 1 -6 -3 -3 -8
5 -8 -21 -26 -35 -23 -3 0 -14 -13 -24 -30 -10 -17 -13 -28 -7 -24 7 4 10 -2
9 -14 -1 -11 -6 -20 -12 -20 -6 0 -6 -3 1 -8 13 -8 14 -42 2 -42 -5 0 -6 -6
-1 -12 11 -18 11 -31 -1 -47 -8 -11 -8 -13 0 -8 13 8 13 -51 0 -72 -7 -10 -5
-12 4 -6 10 6 12 4 7 -10 -4 -9 -3 -23 3 -30 8 -9 8 -15 0 -20 -6 -3 -8 -11
-5 -16 4 -5 0 -9 -7 -9 -7 0 -5 -5 6 -12 19 -11 19 -11 1 -24 -14 -10 -15 -14
-4 -14 12 0 12 -2 -1 -10 -12 -7 -12 -10 -1 -10 8 0 11 -6 7 -16 -4 -9 -2 -22
4 -29 8 -9 8 -15 0 -20 -6 -3 -8 -11 -5 -16 4 -5 0 -9 -7 -9 -10 0 -10 -2 1
-9 10 -6 11 -13 2 -29 -10 -18 -7 -23 19 -39 16 -9 30 -21 30 -25 0 -4 7 -8
16 -8 9 0 12 -5 8 -13 -4 -6 -3 -9 1 -4 5 4 18 -1 29 -10 18 -15 19 -16 8 -1
-11 14 -11 16 5 12 16 -5 19 1 17 39 -1 25 -5 51 -9 58 -5 7 -4 10 1 6 6 -3
10 9 10 28 0 19 -3 32 -7 30 -7 -5 -2 52 6 66 4 5 0 9 -7 9 -8 0 -9 3 -3 8 12
8 13 22 3 37 -4 6 -3 17 2 25 5 9 4 20 -3 29 -7 8 -7 12 -1 9 6 -4 10 6 10 27
0 19 -3 32 -7 30 -7 -5 -2 52 6 66 4 5 0 9 -7 9 -8 0 -9 3 -3 8 12 8 13 22 3
37 -4 6 -3 17 2 25 5 9 4 20 -3 29 -9 12 -9 13 1 7 6 -4 12 -2 12 3 0 6 -6 11
-12 11 -8 0 -9 3 -3 8 13 9 19 46 7 38 -5 -3 -9 2 -8 12 0 9 6 19 13 22 7 3 2
12 -13 23 -13 10 -25 14 -25 10z"/>
<path d="M1314 1265 c0 -30 4 -55 9 -55 5 0 4 -6 -2 -14 -9 -10 -9 -16 -1 -21
8 -5 7 -11 -2 -23 -11 -12 -11 -16 0 -20 9 -3 10 -7 2 -17 -8 -10 -8 -15 0
-20 8 -5 7 -11 -2 -23 -11 -12 -11 -16 0 -20 9 -3 10 -7 2 -17 -8 -10 -8 -15
0 -20 8 -5 7 -11 -2 -23 -11 -12 -11 -16 0 -20 9 -3 10 -7 2 -17 -8 -10 -8
-15 0 -20 8 -5 7 -11 -2 -23 -11 -12 -11 -16 0 -20 9 -3 10 -7 2 -17 -8 -10
-8 -15 0 -20 8 -5 7 -11 -2 -23 -11 -12 -11 -16 0 -20 9 -3 10 -7 2 -17 -8
-10 -8 -15 0 -20 8 -5 7 -11 -1 -22 -10 -11 -10 -16 0 -23 8 -4 9 -10 4 -13
-8 -5 -10 -62 -3 -62 1 0 3 -8 5 -18 2 -9 -1 -15 -6 -11 -13 8 -11 -5 3 -20
10 -10 16 -9 32 5 10 10 22 16 26 14 5 -3 11 2 14 11 3 8 10 12 16 9 5 -3 10
0 10 9 0 8 5 16 12 18 7 3 13 27 14 56 2 36 -1 50 -8 46 -7 -5 -8 -2 -2 7 14
23 15 91 1 82 -9 -5 -9 -4 0 8 13 16 12 36 -1 58 -6 9 -5 12 1 8 6 -4 10 13 9
43 0 32 -3 47 -10 43 -7 -4 -6 -1 0 8 15 18 15 71 1 62 -6 -4 -7 -1 -1 8 14
23 15 91 1 82 -9 -5 -9 -3 -1 8 13 18 16 61 3 54 -5 -4 -9 -2 -9 4 0 5 -9 13
-20 16 -11 4 -17 11 -14 17 4 6 3 8 -3 5 -6 -4 -19 2 -29 12 -17 16 -20 16
-32 2 -11 -14 -11 -14 -6 2 3 9 2 17 -2 17 -5 0 -9 -25 -10 -55z"/>
<path d="M1565 1139 c-4 -17 -4 -33 -1 -36 3 -3 1 -14 -5 -24 -6 -13 -6 -19 0
-19 7 0 7 -8 2 -23 -5 -13 -6 -30 -1 -37 4 -7 4 -25 0 -41 -5 -15 -6 -30 -3
-33 10 -9 8 -76 -2 -81 -6 -3 -6 -7 1 -10 7 -4 10 -22 7 -48 -9 -76 -9 -92 0
-109 5 -12 4 -18 -5 -18 -8 0 -9 -3 -3 -8 14 -10 17 -32 5 -32 -5 0 -10 -7
-10 -15 0 -8 -5 -15 -11 -15 -6 0 -23 -9 -39 -20 -15 -11 -31 -16 -35 -12 -5
4 -5 1 -1 -6 5 -8 -2 -16 -18 -22 -14 -5 -34 -18 -46 -30 -11 -11 -20 -15 -20
-8 0 6 -9 1 -20 -12 -11 -13 -20 -19 -20 -14 0 5 -5 2 -10 -6 -5 -8 -15 -15
-22 -15 -7 -1 -12 -7 -10 -15 2 -8 0 -12 -4 -7 -4 4 -16 -1 -27 -10 -13 -11
-17 -12 -12 -4 5 9 -2 7 -17 -5 -14 -10 -24 -22 -21 -26 4 -7 -12 -12 -29 -9
-5 0 -8 -4 -8 -11 0 -6 -3 -9 -6 -5 -4 3 -15 -4 -26 -16 -11 -12 -17 -15 -13
-7 4 8 -1 6 -9 -4 -9 -11 -16 -16 -16 -11 0 4 -8 -2 -19 -13 -10 -12 -21 -19
-25 -15 -3 3 -6 1 -6 -6 0 -7 -4 -10 -9 -6 -6 3 -14 -3 -20 -12 -6 -10 -11
-14 -11 -9 0 6 -6 3 -12 -5 -7 -8 -25 -20 -39 -26 -23 -10 -30 -8 -50 10 -13
12 -27 22 -32 22 -5 0 -14 8 -21 17 -7 10 -16 14 -20 10 -4 -4 -12 1 -17 11
-6 9 -17 17 -24 17 -8 0 -15 4 -15 9 0 8 -37 24 -52 22 -5 -1 -7 4 -5 11 1 7
-5 13 -13 13 -8 0 -14 6 -13 12 2 7 -6 10 -17 8 -12 -2 -18 0 -15 5 3 5 -4 11
-15 15 -11 4 -18 11 -14 16 3 6 0 10 -7 8 -27 -3 -40 1 -34 11 3 6 -3 10 -14
10 -13 0 -21 7 -21 18 0 14 -2 15 -10 2 -7 -10 -10 -11 -10 -2 0 7 -8 16 -17
19 -18 7 -29 15 -58 41 -8 7 -19 11 -24 7 -5 -3 -12 4 -16 15 -3 11 -9 19 -13
19 -21 -3 -32 2 -26 12 4 7 1 10 -7 7 -36 -12 -42 17 -43 232 -1 136 2 206 9
202 6 -3 4 1 -2 9 -10 12 -10 18 -1 27 9 9 9 12 -1 12 -9 0 -11 9 -6 31 6 25
4 30 -6 25 -8 -4 -6 -1 4 7 17 14 16 15 -3 20 -11 3 -20 1 -20 -5 0 -5 -4 -6
-10 -3 -5 3 -10 1 -10 -5 0 -6 -4 -8 -10 -5 -5 3 -10 -1 -10 -10 0 -9 -4 -14
-9 -11 -4 3 -21 -6 -37 -19 -26 -22 -27 -25 -9 -26 19 0 19 -1 1 -8 -15 -6
-16 -10 -7 -16 11 -6 11 -9 0 -17 -11 -7 -11 -11 -1 -15 6 -2 9 -10 5 -16 -11
-17 -10 -61 2 -69 6 -5 5 -12 -5 -18 -13 -9 -13 -11 -1 -19 12 -8 12 -12 2
-25 -11 -12 -11 -16 -1 -16 9 0 10 -3 1 -13 -8 -10 -7 -17 2 -27 9 -10 9 -11
-1 -5 -16 8 -13 -26 3 -37 6 -5 4 -12 -5 -18 -13 -9 -13 -11 -1 -19 12 -8 12
-12 2 -25 -11 -12 -11 -16 -1 -16 9 0 10 -3 1 -13 -8 -10 -7 -17 2 -26 9 -9 9
-14 -3 -21 -13 -8 -12 -12 5 -25 11 -9 15 -14 9 -11 -15 7 -27 -21 -12 -30 7
-4 6 -9 -3 -15 -11 -7 -10 -9 3 -9 9 0 21 -6 25 -13 8 -14 42 -31 55 -29 5 1
7 -4 5 -10 -1 -7 8 -14 21 -16 12 -2 20 -8 17 -13 -4 -5 1 -9 9 -9 9 0 16 -5
16 -11 0 -5 5 -7 10 -4 6 3 10 -1 10 -10 0 -9 5 -13 10 -10 15 9 62 -23 54
-37 -4 -6 -3 -8 4 -4 6 3 13 2 17 -4 4 -6 11 -8 16 -5 5 4 9 1 9 -4 0 -6 7
-11 16 -11 9 0 12 -5 8 -12 -5 -7 -2 -9 9 -5 9 3 18 0 21 -9 3 -8 13 -14 21
-14 9 0 13 -5 10 -10 -3 -6 2 -10 13 -10 10 0 27 -9 37 -20 10 -11 24 -20 32
-20 7 0 13 -4 13 -10 0 -5 7 -10 15 -10 8 0 15 -4 15 -10 0 -5 6 -10 14 -10 8
0 21 -9 29 -20 8 -11 17 -17 20 -13 4 3 15 -2 24 -13 10 -10 24 -20 32 -22 8
-2 19 -9 25 -16 6 -7 26 -19 43 -26 18 -7 30 -16 27 -21 -3 -5 1 -10 8 -10 33
-3 54 4 70 22 10 11 22 18 28 14 5 -3 10 -2 10 3 0 5 27 27 60 48 33 21 60 43
60 49 0 5 5 3 10 -5 8 -13 10 -12 10 4 0 11 3 16 7 13 3 -4 17 3 30 15 13 12
23 19 23 15 0 -3 12 5 27 19 15 14 33 22 40 20 7 -3 13 1 13 9 0 8 5 15 11 15
6 0 23 9 39 20 15 11 31 16 35 12 5 -4 5 -2 2 4 -6 11 40 40 56 35 5 -1 6 2 3
7 -2 4 11 16 30 27 19 10 34 22 34 26 0 5 7 5 17 2 11 -4 14 -3 9 5 -4 7 -2
12 3 12 6 0 13 0 16 0 3 0 14 9 25 20 12 12 26 18 32 14 6 -4 9 -3 6 2 -7 11
12 29 32 29 9 0 15 11 17 29 1 16 4 35 7 43 3 7 1 13 -4 13 -6 0 -10 5 -10 11
0 5 4 7 10 4 7 -4 7 3 0 19 -5 14 -6 26 -1 26 5 0 5 18 1 40 -5 27 -4 40 4 40
6 0 4 5 -4 10 -8 5 -10 10 -5 10 6 0 10 18 10 39 0 22 -3 37 -7 35 -8 -5 -4
23 4 31 3 3 2 22 -2 41 -4 19 -4 34 1 34 5 0 9 5 9 11 0 5 -3 8 -7 6 -5 -3 -8
6 -8 19 0 13 5 24 10 24 6 0 3 5 -5 10 -8 5 -10 10 -4 10 13 0 6 50 -10 65 -6
6 -19 14 -28 18 -10 3 -18 11 -18 17 0 7 -8 9 -21 5 -12 -4 -19 -3 -16 1 3 5
-1 14 -8 21 -11 10 -15 7 -20 -18z"/>
<path d="M755 900 c-4 -6 -13 -9 -21 -6 -8 3 -14 1 -14 -5 0 -6 -3 -8 -7 -6
-5 3 -9 -6 -9 -19 -1 -14 2 -21 8 -18 6 4 5 -3 -1 -15 -9 -16 -9 -21 0 -21 8
0 8 -4 -1 -15 -10 -12 -10 -15 1 -15 11 0 11 -3 -1 -11 -11 -8 -12 -12 -2 -16
6 -2 9 -10 6 -15 -10 -16 -10 -108 -1 -108 5 0 5 -5 1 -12 -10 -17 -11 -68 0
-68 5 0 3 -6 -3 -13 -8 -11 -6 -18 9 -32 11 -10 20 -15 20 -11 0 3 14 -7 32
-24 21 -20 34 -27 39 -19 5 8 8 7 12 -2 4 -11 6 -11 6 -1 1 8 6 10 14 6 8 -5
8 -2 -2 9 -11 14 -11 20 0 34 11 13 11 15 1 9 -16 -10 -13 25 3 36 6 5 6 8 -2
8 -13 0 -12 18 1 39 6 10 5 12 -3 7 -12 -8 -9 33 5 55 4 8 3 9 -4 5 -14 -8
-12 20 2 43 7 11 5 13 -9 7 -18 -6 -18 -6 1 15 10 12 13 19 7 15 -18 -10 -16
9 1 27 9 9 26 12 42 9 21 -4 25 -2 19 9 -7 12 -6 11 9 0 15 -13 19 -13 27 0 5
8 9 9 9 3 0 -7 22 -10 57 -10 54 1 57 0 64 -26 4 -17 3 -28 -2 -28 -6 0 -7 -5
-4 -10 4 -6 11 -7 17 -4 5 4 3 -5 -7 -19 -12 -18 -13 -27 -4 -32 8 -6 8 -10
-2 -16 -11 -7 -9 -9 6 -9 15 0 17 -2 6 -9 -8 -5 -11 -16 -8 -25 4 -9 1 -16 -6
-16 -7 0 -8 -3 -2 -8 13 -9 15 -42 3 -42 -6 0 -6 -6 1 -14 7 -8 8 -17 3 -20
-11 -6 -9 -43 3 -53 4 -5 5 -2 1 5 -4 6 -2 12 3 12 6 0 11 -4 11 -9 0 -5 18 0
39 12 22 12 37 25 35 29 -2 3 6 8 18 10 14 2 22 11 23 26 1 12 -2 22 -7 22 -5
0 -4 10 3 21 8 16 8 20 -1 14 -9 -6 -9 -2 -1 14 8 13 8 21 2 21 -7 0 -7 9 -1
25 6 15 6 26 0 30 -6 4 -7 13 -1 24 6 10 6 23 1 31 -5 8 -6 18 -3 24 9 13 8
70 -1 84 -4 7 -3 12 3 12 14 0 6 31 -11 41 -8 5 -25 7 -37 4 -12 -2 -21 1 -21
8 0 7 -4 6 -10 -3 -9 -13 -10 -13 -10 0 0 13 -1 13 -10 0 -8 -12 -10 -12 -10
-1 0 11 -3 11 -17 0 -17 -14 -20 -14 -40 3 -8 6 -19 6 -32 -2 -14 -7 -21 -7
-21 0 0 12 -22 9 -32 -5 -5 -6 -11 -5 -17 4 -6 9 -11 10 -15 2 -4 -6 -13 -11
-19 -11 -7 0 -6 4 3 10 8 5 10 10 4 10 -5 0 -15 -5 -22 -12 -9 -9 -12 -9 -12
1 0 10 -3 11 -14 2 -10 -8 -16 -9 -21 -1 -3 5 -12 10 -18 10 -7 0 -6 -4 3 -10
9 -6 10 -10 3 -10 -6 0 -15 5 -19 11 -4 8 -9 7 -15 -2 -8 -12 -10 -12 -18 0
-6 10 -10 10 -16 1z"/>
</g>
</svg>
